<svg xmlns="http://www.w3.org/2000/svg" viewBox="0 0 320 80" width="320" height="80" role="img" aria-label="I Trust Techno Solutions">
  <defs>
    <linearGradient id="g1" x1="0" y1="0" x2="1" y2="1">
      <stop offset="0%" stop-color="#7CD6FF"/>
      <stop offset="100%" stop-color="#A879FF"/>
    </linearGradient>
    <linearGradient id="g2" x1="1" y1="0" x2="0" y2="1">
      <stop offset="0%" stop-color="#FF6EC7"/>
      <stop offset="100%" stop-color="#A879FF"/>
    </linearGradient>
    <linearGradient id="border" x1="0" y1="0" x2="1" y2="1">
      <stop offset="0%" stop-color="#A879FF"/>
      <stop offset="50%" stop-color="#FF6EC7"/>
      <stop offset="100%" stop-color="#7CD6FF"/>
    </linearGradient>
  </defs>
  <!-- mark -->
  <rect x="2" y="10" width="60" height="60" rx="14" fill="url(#border)"/>
  <rect x="4.5" y="12.5" width="55" height="55" rx="12" fill="#0B0B14"/>
  <g transform="translate(12 18)">
    <circle cx="9" cy="8" r="3.2" fill="url(#g1)"/>
    <rect x="6.4" y="14" width="5.2" height="20" rx="2.6" fill="url(#g1)"/>
    <rect x="15" y="20" width="5.2" height="14" rx="2.6" fill="url(#g2)"/>
    <rect x="23.6" y="14" width="5.2" height="20" rx="2.6" fill="url(#g2)"/>
    <path d="M32 6 L34 10 L38 12 L34 14 L32 18 L30 14 L26 12 L30 10 Z" fill="#FFFFFF" opacity="0.95"/>
  </g>
  <!-- wordmark -->
  <g font-family="Inter, -apple-system, Segoe UI, sans-serif" font-weight="800">
    <text x="78" y="42" font-size="20" fill="#F4F4F8" letter-spacing="-0.5">I Trust <tspan fill="url(#border)">Techno</tspan></text>
    <text x="78" y="60" font-size="9" letter-spacing="4" fill="#9AA0B4" font-weight="600">SOLUTIONS · ITTS</text>
  </g>
</svg>
